<svg width="66" height="252" fill="none" xmlns="http://www.w3.org/2000/svg"><path d="M22.42 234.344v10.8H.64v6.66h27.9v-17.46h-6.12zm-20.7 16.38v-4.5H23.5v-10.8h3.96v15.3H1.72zm27.216-28.36c0-1.692-.36-3.384-1.08-4.86-.72-1.548-1.728-2.772-2.952-3.6l-.396-.288-3.816 4.932c1.584.9 2.088 2.196 2.088 3.78v.144l-6.732-9.396-.396.108c-1.8.612-3.492 1.836-4.716 3.456-1.332 1.8-2.052 3.924-2.052 6.156 0 2.664 1.044 5.148 2.952 7.056 1.872 1.872 4.392 2.916 7.092 2.916 5.508 0 10.008-4.68 10.008-10.404zm-18.972.432c0-2.016.648-3.924 1.836-5.508 1.008-1.332 2.34-2.376 3.816-2.916l7.524 10.476c.648-.684.72-1.98.72-2.484 0-1.692-.576-3.132-1.62-4.032l2.484-3.24c1.908 1.548 3.132 4.356 3.132 7.272 0 5.112-3.996 9.324-8.928 9.324a8.874 8.874 0 01-6.336-2.628 8.71 8.71 0 01-2.628-6.264zm5.472-3.384c-1.116 1.116-1.44 2.34-1.44 3.384 0 1.26.504 2.484 1.404 3.384a4.889 4.889 0 003.384 1.404c.72 0 1.44-.18 2.088-.54l-5.436-7.632zm-.36 3.384c0-.576.108-1.08.36-1.548l3.744 5.22c-.072.036-.18.036-.252.036-1.08 0-2.052-.396-2.772-1.116a3.68 3.68 0 01-1.08-2.592zm22.536-21.421c0-5.4-4.392-9.828-9.792-9.828H9.28v6.192h.684c-.648 1.08-1.08 2.592-1.08 3.888 0 1.26.252 2.52.792 3.672a9.736 9.736 0 002.16 3.024c1.872 1.8 4.392 2.772 7.092 2.772 2.628 0 5.148-.972 7.02-2.736 1.908-1.8 2.988-4.176 2.988-6.732 0-.9-.18-1.872-.504-2.736-.144-.324-.324-.756-.576-1.152h.288c1.836 0 3.312 1.584 3.312 3.636a3.613 3.613 0 01-1.8 3.132l-.504.324 3.636 5.04.432-.324c1.332-.864 2.412-2.088 3.168-3.456a9.794 9.794 0 001.224-4.716zm-6.912 3.744a4.742 4.742 0 001.836-3.744c0-2.628-1.944-4.716-4.392-4.716h-3.06c2.376 1.332 2.772 3.348 2.772 4.968 0 4.644-4.032 8.388-8.928 8.388-2.412 0-4.68-.9-6.372-2.484-1.692-1.584-2.592-3.708-2.592-5.904 0-1.26.504-3.636 2.484-4.968H10.36v-4.032h17.46c4.788 0 8.712 3.924 8.712 8.748 0 1.476-.36 2.916-1.08 4.176a9.524 9.524 0 01-2.412 2.808l-2.34-3.24zm-6.84-3.996c0-2.7-2.088-4.68-4.932-4.68-1.404 0-2.628.468-3.528 1.332-.936.864-1.404 2.052-1.404 3.348 0 1.296.468 2.484 1.368 3.384.936.9 2.196 1.404 3.564 1.404 1.368 0 2.628-.504 3.528-1.404.9-.9 1.404-2.088 1.404-3.384zm-8.784 0c0-1.008.36-1.908 1.044-2.556.72-.684 1.692-1.044 2.808-1.044 1.08 0 2.088.36 2.772 1.044a3.476 3.476 0 011.08 2.556 3.702 3.702 0 01-1.08 2.628c-.72.684-1.692 1.08-2.772 1.08-1.08 0-2.088-.396-2.772-1.08-.72-.684-1.08-1.62-1.08-2.628zm13.86-22.809c0-1.692-.36-3.384-1.08-4.86-.72-1.548-1.728-2.772-2.952-3.6l-.396-.288-3.816 4.932c1.584.9 2.088 2.196 2.088 3.78v.144l-6.732-9.396-.396.108c-1.8.612-3.492 1.836-4.716 3.456-1.332 1.8-2.052 3.924-2.052 6.156 0 2.664 1.044 5.148 2.952 7.056 1.872 1.872 4.392 2.916 7.092 2.916 5.508 0 10.008-4.68 10.008-10.404zm-18.972.432c0-2.016.648-3.924 1.836-5.508 1.008-1.332 2.34-2.376 3.816-2.916l7.524 10.476c.648-.684.72-1.98.72-2.484 0-1.692-.576-3.132-1.62-4.032l2.484-3.24c1.908 1.548 3.132 4.356 3.132 7.272 0 5.112-3.996 9.324-8.928 9.324a8.874 8.874 0 01-6.336-2.628 8.71 8.71 0 01-2.628-6.264zm5.472-3.384c-1.116 1.116-1.44 2.34-1.44 3.384 0 1.26.504 2.484 1.404 3.384a4.889 4.889 0 003.384 1.404c.72 0 1.44-.18 2.088-.54l-5.436-7.632zm-.36 3.384c0-.576.108-1.08.36-1.548l3.744 5.22c-.072.036-.18.036-.252.036-1.08 0-2.052-.396-2.772-1.116a3.68 3.68 0 01-1.08-2.592zm3.852-31.861c-2.736 0-5.256.9-7.092 2.484-1.908 1.656-2.952 3.96-2.952 6.48 0 .936.144 1.944.396 2.808.18.54.396 1.044.648 1.44H9.28v6.192h19.26v-6.192h-9.612c-1.224 0-2.232-.396-2.916-1.152-.612-.684-.936-1.62-.936-2.664 0-1.98 1.476-3.24 3.852-3.24h9.612v-6.156h-9.612zm0 5.076c-1.512 0-2.808.432-3.672 1.26-.828.756-1.26 1.836-1.26 3.06 0 1.296.432 2.52 1.224 3.384.9 1.008 2.16 1.512 3.708 1.512h8.532v4.032h-17.1v-4.032h2.16c-2.16-1.404-2.556-3.204-2.556-5.328 0-1.116.216-2.196.684-3.168a7.081 7.081 0 011.908-2.484c1.656-1.44 3.888-2.232 6.372-2.232h8.532v3.996h-8.532zm10.008-17.147c0-.9-.18-1.872-.504-2.736-.144-.324-.324-.756-.576-1.152h.684v-6.192H.64v6.192h9.324c-.648 1.08-1.08 2.592-1.08 3.888 0 1.26.252 2.52.792 3.672a9.736 9.736 0 002.16 3.024c1.872 1.8 4.392 2.772 7.092 2.772 2.628 0 5.148-.972 7.02-2.736 1.908-1.8 2.988-4.176 2.988-6.732zm-18.972 0c0-1.26.468-3.636 2.484-4.968H1.72v-4.032h25.74v4.032h-2.376c2.376 1.332 2.772 3.348 2.772 4.968 0 4.644-4.032 8.388-8.928 8.388-2.412 0-4.68-.9-6.372-2.484-1.692-1.584-2.592-3.708-2.592-5.904zm13.896-.504c0-2.7-2.088-4.68-4.932-4.68-1.404 0-2.628.468-3.528 1.332-.936.864-1.404 2.052-1.404 3.348 0 1.296.468 2.484 1.368 3.384.936.9 2.196 1.404 3.564 1.404 1.368 0 2.628-.504 3.528-1.404.9-.9 1.404-2.088 1.404-3.384zm-8.784 0c0-1.008.36-1.908 1.044-2.556.72-.684 1.692-1.044 2.808-1.044 1.08 0 2.088.36 2.772 1.044a3.476 3.476 0 011.08 2.556 3.702 3.702 0 01-1.08 2.628c-.72.684-1.692 1.08-2.772 1.08-1.08 0-2.088-.396-2.772-1.08-.72-.684-1.08-1.62-1.08-2.628zm13.86-21.872c0-1.26-.36-2.772-1.044-3.888h.648v-6.192H9.28v6.192H10c-.648 1.08-1.116 2.592-1.116 3.888 0 1.26.288 2.52.792 3.672a9.736 9.736 0 002.16 3.024c1.908 1.8 4.428 2.772 7.092 2.772 2.664 0 5.148-.972 7.056-2.736 1.908-1.8 2.952-4.176 2.952-6.732zm-18.972 0c0-1.512.432-3.636 2.52-4.968H10.36v-4.032h17.1v4.032h-2.376c2.376 1.368 2.772 3.348 2.772 4.968 0 4.644-3.996 8.388-8.928 8.388-2.376 0-4.644-.9-6.336-2.484-1.692-1.584-2.628-3.708-2.628-5.904zm13.896-.504c0-2.7-2.088-4.68-4.932-4.68-1.368 0-2.628.468-3.528 1.332-.9.864-1.404 2.052-1.404 3.348 0 1.296.504 2.484 1.404 3.384.9.9 2.16 1.404 3.528 1.404 1.368 0 2.628-.504 3.564-1.44a4.706 4.706 0 001.368-3.348zm-8.784 0c0-1.008.396-1.908 1.08-2.556.684-.684 1.692-1.044 2.772-1.044 1.116 0 2.088.36 2.808 1.044.684.648 1.044 1.548 1.044 2.556s-.36 1.944-1.044 2.628c-.72.684-1.728 1.08-2.808 1.08-1.08 0-2.052-.396-2.772-1.08a3.702 3.702 0 01-1.08-2.628zm3.852-19.352c-1.26 0-2.268-.324-2.952-.936-.612-.576-.9-1.332-.9-2.196 0-.54.072-1.008.216-1.44l.252-.72H9.028l-.072.468c-.072.504-.072.9-.072 1.332 0 1.296.36 2.52 1.008 3.492H9.28v6.192h19.26v-6.192h-9.612zm-8.568 5.112v-4.032h2.052l-.972-.936c-1.296-1.224-1.476-2.808-1.476-3.636v-.72h4.104c-.072.324-.072.684-.072 1.08 0 1.152.432 2.232 1.26 2.988.9.792 2.16 1.224 3.672 1.224h8.532v4.032h-17.1zM9.28 64.527v6.264l10.512 4.824L9.28 80.51v6.84l16.992-8.46 10.944 5.112v-6.48L9.28 64.527zm16.956 13.176L10.36 85.587v-4.392l11.988-5.616-11.988-5.472v-3.888l25.776 11.988v4.104l-9.9-4.608zM64.54 241.904c0-2.664-.864-5.112-2.376-6.948a8.881 8.881 0 00-2.916-2.268c-1.188-.576-2.484-.828-3.888-.828s-2.7.324-3.888.972c-1.008.54-1.944 1.368-2.736 2.376-1.188-1.116-2.664-1.62-4.464-1.62-2.556 0-4.536.864-5.868 2.592-1.152 1.548-1.764 3.744-1.764 6.48v9.144h27.9v-9.9zm-26.82 8.82v-8.064c0-2.52.54-4.464 1.548-5.832 1.116-1.44 2.808-2.16 5.004-2.16 1.728 0 3.06.54 4.14 1.728l.468.504.36-.576c1.44-2.304 3.672-3.384 6.12-3.384 2.412 0 4.464.936 5.976 2.7 1.368 1.656 2.124 3.852 2.124 6.264v8.82H37.72zm21.78-9c0-2.556-1.512-4.14-3.96-4.14-1.224 0-2.232.36-2.952 1.08-.684.72-1.08 1.764-1.08 3.06v4.5H59.5v-4.5zm-11.772 1.152c0-1.404-.324-2.34-1.008-2.952-.648-.576-1.476-.612-2.016-.612-1.116 0-1.944.396-2.448 1.152-.396.576-.576 1.368-.576 2.412v3.348h6.048v-3.348zm4.86 2.268v-3.42c0-1.98 1.044-3.06 2.952-3.06.9 0 1.62.252 2.124.756s.756 1.296.756 2.304v3.42h-5.832zm-9.828 0v-2.268c0-.828.144-1.404.396-1.8.288-.468.792-.684 1.548-.684.936 0 1.944.18 1.944 2.484v2.268H42.76zm-7.236-27.949l29.016 15.048v-6.984l-3.564-1.728v-12.348l3.564-1.765v-7.308l-29.016 15.085zm24.372-6.66v13.644l3.564 1.728v4.536l-25.596-13.248L63.46 203.91v4.86l-3.564 1.765zm-14.148 6.875l10.152 4.897v-9.865l-10.152 4.968zm2.484 0l6.588-3.24v6.408l-6.588-3.168zm9.756-33.089c-.936-1.692-2.196-3.024-3.78-3.996-1.836-1.152-3.996-1.692-6.48-1.692-2.988 0-5.76 1.188-7.848 3.348-2.088 2.196-3.24 5.148-3.24 8.316v9.864h27.9v-6.66h-4.644v-2.052l4.644-4.392v-8.892l-6.552 6.156zm.828 6.66v3.6h4.644v4.5H37.72v-8.784c0-2.916 1.044-5.58 2.952-7.56 1.872-1.944 4.356-3.024 7.056-3.024 2.268 0 4.248.504 5.904 1.512 1.62 1.008 2.844 2.412 3.672 4.212l.324.684 5.832-5.472v5.94l-4.644 4.392zm-3.96.756c0-2.34-.576-4.176-1.728-5.472-1.152-1.26-2.808-1.908-4.968-1.908-1.836 0-3.384.54-4.572 1.584-1.224 1.116-1.908 2.736-1.908 4.716v3.924h13.176v-2.844zm-12.096 1.764v-2.844c0-1.656.54-3.024 1.548-3.924.972-.864 2.304-1.296 3.852-1.296 1.836 0 3.24.504 4.176 1.548.972 1.08 1.44 2.664 1.44 4.752v1.764H42.76zm21.78-28.605c0-2.664-.864-5.112-2.376-6.948a8.881 8.881 0 00-2.916-2.268c-1.188-.576-2.484-.828-3.888-.828s-2.7.324-3.888.972c-1.008.54-1.944 1.368-2.736 2.376-1.188-1.116-2.664-1.62-4.464-1.62-2.556 0-4.536.864-5.868 2.592-1.152 1.548-1.764 3.744-1.764 6.48v9.144h27.9v-9.9zm-26.82 8.82v-8.064c0-2.52.54-4.464 1.548-5.832 1.116-1.44 2.808-2.16 5.004-2.16 1.728 0 3.06.54 4.14 1.728l.468.504.36-.576c1.44-2.304 3.672-3.384 6.12-3.384 2.412 0 4.464.936 5.976 2.7 1.368 1.656 2.124 3.852 2.124 6.264v8.82H37.72zm21.78-9c0-2.556-1.512-4.14-3.96-4.14-1.224 0-2.232.36-2.952 1.08-.684.72-1.08 1.764-1.08 3.06v4.5H59.5v-4.5zm-11.772 1.152c0-1.404-.324-2.34-1.008-2.952-.648-.576-1.476-.612-2.016-.612-1.116 0-1.944.396-2.448 1.152-.396.576-.576 1.368-.576 2.412v3.348h6.048v-3.348zm4.86 2.268v-3.42c0-1.98 1.044-3.06 2.952-3.06.9 0 1.62.252 2.124.756s.756 1.296.756 2.304v3.42h-5.832zm-9.828 0v-2.268c0-.828.144-1.404.396-1.8.288-.468.792-.684 1.548-.684.936 0 1.944.18 1.944 2.484v2.268H42.76zm15.66-34.975v11.052h-5.652v-10.08h-6.084v10.08H42.76v-8.676h-6.12v15.336h27.9v-17.712h-6.12zm-20.7 16.632v-13.176h3.96v8.676h6.084v-10.08h3.924v10.08H59.5v-11.052h3.96v15.552H37.72zm20.268-36.468c-.936-1.692-2.196-3.024-3.78-3.996-1.836-1.152-3.996-1.692-6.48-1.692-2.988 0-5.76 1.188-7.848 3.348-2.088 2.196-3.24 5.148-3.24 8.316v9.864h27.9v-6.66h-4.644v-2.052l4.644-4.392v-8.892l-6.552 6.156zm.828 6.66v3.6h4.644v4.5H37.72v-8.784c0-2.916 1.044-5.58 2.952-7.56 1.872-1.944 4.356-3.024 7.056-3.024 2.268 0 4.248.504 5.904 1.512 1.62 1.008 2.844 2.412 3.672 4.212l.324.684 5.832-5.472v5.94l-4.644 4.392zm-3.96.756c0-2.34-.576-4.176-1.728-5.472-1.152-1.26-2.808-1.908-4.968-1.908-1.836 0-3.384.54-4.572 1.584-1.224 1.116-1.908 2.736-1.908 4.716v3.924h13.176v-2.844zm-12.096 1.764v-2.844c0-1.656.54-3.024 1.548-3.924.972-.864 2.304-1.296 3.852-1.296 1.836 0 3.24.504 4.176 1.548.972 1.08 1.44 2.664 1.44 4.752v1.764H42.76zm22.248-25.812a9.586 9.586 0 00-.72-3.6 9.056 9.056 0 00-1.944-3.06 9.285 9.285 0 00-6.84-2.952c-2.592 0-4.86.9-6.516 2.628-1.512 1.584-2.448 3.78-2.592 6.228-.072 1.224-.324 2.088-.756 2.628-.324.432-.72.612-1.224.612-1.152 0-1.836-.72-1.836-1.944 0-.756.504-1.8 1.152-2.448l.36-.324-3.816-5.256-.468.396a10.088 10.088 0 00-2.772 3.564 9.707 9.707 0 00-.864 4.068c0 .972.216 2.016.612 2.988a8.767 8.767 0 001.692 2.7c1.62 1.764 3.708 2.736 5.976 2.736 2.196 0 4.14-.792 5.58-2.232 1.44-1.476 2.34-3.492 2.628-5.904.18-1.62.9-3.564 3.24-3.564 1.476 0 2.664 1.224 2.664 2.736 0 1.368-.288 2.52-1.728 3.636l-.432.324 4.068 5.508.432-.396c1.404-1.26 2.484-2.736 3.168-4.32.612-1.476.936-3.06.936-4.752zm-7.128 4.14c.612-.54 1.044-1.116 1.332-1.764.288-.648.432-1.44.432-2.376 0-2.088-1.692-3.816-3.744-3.816-1.224 0-2.232.432-2.988 1.224-.72.756-1.152 1.872-1.332 3.276-.504 4.464-3.24 7.2-7.128 7.2-1.944 0-3.78-.828-5.184-2.376-1.26-1.404-2.016-3.24-2.016-4.968 0-2.52.972-4.68 2.844-6.444l2.592 3.564c-.72.828-1.188 1.944-1.188 2.88 0 1.8 1.188 3.024 2.916 3.024.828 0 1.548-.36 2.088-1.008.54-.72.9-1.8.972-3.24.144-2.196.972-4.14 2.304-5.544 1.44-1.512 3.42-2.304 5.724-2.304 2.304 0 4.464.936 6.048 2.592 1.512 1.62 2.376 3.78 2.376 5.94 0 1.512-.288 2.988-.864 4.32-.54 1.296-1.368 2.484-2.448 3.528l-2.736-3.708zM36.64 58.771v6.66h10.044v11.232H36.64v6.66h27.9v-6.66H52.768V65.43H64.54v-6.66h-27.9zm15.048 5.58v13.392H63.46v4.5H37.72v-4.5h10.044V64.35H37.72v-4.5h25.74v4.5H51.688zm13.32-24.002c0-1.944-.396-3.816-1.152-5.616a14.988 14.988 0 00-3.06-4.572c-1.332-1.332-2.88-2.34-4.608-3.06a14.25 14.25 0 00-5.616-1.152c-1.944 0-3.816.396-5.616 1.152a14.366 14.366 0 00-4.572 3.06c-1.332 1.332-2.34 2.88-3.06 4.608a14.25 14.25 0 000 11.232 13.979 13.979 0 003.06 4.572 14.474 14.474 0 004.572 3.096c1.8.72 3.672 1.116 5.616 1.116 1.944 0 3.852-.396 5.616-1.116a14.232 14.232 0 004.608-3.096 14.724 14.724 0 003.06-4.608 14.25 14.25 0 001.152-5.616zm-27.756.036c0-3.564 1.368-6.948 3.888-9.468 2.52-2.484 5.868-3.888 9.432-3.888 1.8 0 3.564.36 5.184 1.044s3.024 1.62 4.248 2.844c2.52 2.52 3.924 5.868 3.924 9.432s-1.404 6.948-3.924 9.468c-2.52 2.52-5.868 3.888-9.432 3.888s-6.912-1.368-9.432-3.888c-2.52-2.52-3.888-5.868-3.888-9.432zm22.392-.036c0-2.34-.936-4.536-2.628-6.156-1.692-1.62-3.996-2.52-6.444-2.52-2.412 0-4.68.9-6.408 2.52-1.728 1.656-2.664 3.852-2.664 6.192 0 2.34.936 4.536 2.664 6.192 1.692 1.584 3.996 2.484 6.408 2.484 2.448 0 4.752-.9 6.444-2.52 1.692-1.62 2.628-3.816 2.628-6.192zm-17.064.036c0-2.052.828-3.96 2.34-5.4 1.512-1.44 3.528-2.232 5.652-2.232 2.16 0 4.212.792 5.688 2.232a7.35 7.35 0 012.304 5.364c0 2.088-.828 3.996-2.304 5.436-1.476 1.404-3.492 2.196-5.688 2.196-2.16 0-4.176-.792-5.652-2.196-1.512-1.44-2.34-3.348-2.34-5.4zm17.892-25.104v-2.664c0-3.42-1.26-6.516-3.564-8.748C54.64 1.673 51.472.485 47.98.485c-2.844 0-5.688 1.188-7.812 3.276-2.268 2.232-3.528 5.256-3.528 8.496v9.684h27.9v-6.66h-4.068zm-22.752 5.58v-8.604c0-2.952 1.152-5.688 3.204-7.704 1.944-1.908 4.5-2.988 7.056-2.988 6.624 0 11.412 4.644 11.412 11.052v3.744h4.068v4.5H37.72zm17.676-8.1c0-2.016-.684-3.708-2.016-4.896-1.224-1.08-2.952-1.656-4.824-1.656-1.728 0-3.42.576-4.68 1.584a5.597 5.597 0 00-1.584 1.98 5.92 5.92 0 00-.612 2.664v3.924h13.716v-3.6zm-12.636 2.52v-2.844c0-3.348 2.988-5.148 5.796-5.148 1.62 0 3.06.468 4.104 1.404 1.08.972 1.656 2.376 1.656 4.068v2.52H42.76z" fill="#DCDCDC"/></svg>