<svg width="60" height="60" fill="#fff" xmlns="http://www.w3.org/2000/svg"><path d="M54.375 3.75H5.625A5.626 5.626 0 000 9.375v41.25a5.626 5.626 0 005.625 5.625h48.75A5.626 5.626 0 0060 50.625V9.375a5.626 5.626 0 00-5.625-5.625zm-9.797 34.043a1.443 1.443 0 010 2.039l-4.746 4.746a1.443 1.443 0 01-2.039 0L30 36.715l-7.793 7.863a1.443 1.443 0 01-2.039 0l-4.746-4.746a1.443 1.443 0 010-2.039L23.285 30l-7.863-7.793a1.443 1.443 0 010-2.039l4.746-4.746a1.443 1.443 0 012.039 0L30 23.285l7.793-7.863a1.443 1.443 0 012.039 0l4.746 4.746a1.443 1.443 0 010 2.039L36.715 30l7.863 7.793z"/></svg>