<svg width="60" height="60" fill="none" xmlns="http://www.w3.org/2000/svg"><rect width="60" height="60" rx="5" fill="#DC4444"/><path d="M16.916 44c4.932 0 9.504-3.168 9.504-8.64 0-2.592-1.224-4.896-3.636-6.552 1.296-1.188 1.908-2.664 1.908-4.536 0-5.004-3.564-7.092-8.532-7.092H7.556V44h9.36zm-3.78-5.04v-6.912h3.96c2.304 0 3.6 1.332 3.6 3.492 0 2.088-1.296 3.42-3.6 3.42h-3.96zm0-11.772V22.22h2.808c1.548 0 3.024.432 3.024 2.484 0 1.116-.324 2.484-3.024 2.484h-2.808zm27.46 12.168L44.988 44h7.416l-5.796-6.192c3.744-1.728 6.048-5.256 6.048-10.08 0-5.832-4.824-10.548-11.124-10.548h-9.324V44h5.58v-4.644h2.808zm-2.808-5.04V22.22h3.384c3.816 0 5.76 2.664 5.76 5.94 0 3.996-2.412 6.156-6.84 6.156h-2.304z" fill="#fff"/></svg>