<svg width="182" height="51" fill="none" xmlns="http://www.w3.org/2000/svg"><path d="M11.916 28c4.932 0 9.504-3.168 9.504-8.64 0-2.592-1.224-4.896-3.636-6.552 1.296-1.188 1.908-2.664 1.908-4.536 0-5.004-3.564-7.092-8.532-7.092H2.556V28h9.36zm-3.78-5.04v-6.912h3.96c2.304 0 3.6 1.332 3.6 3.492 0 2.088-1.296 3.42-3.6 3.42h-3.96zm0-11.772V6.22h2.808c1.548 0 3.024.432 3.024 2.484 0 1.116-.324 2.484-3.024 2.484H8.136zM42.04 28v-5.04H30.988v-6.732h10.08v-5.004h-10.08V6.22h8.676V1.18H25.408V28H42.04zm10.448-11.88c2.592.288 4.032 1.62 4.032 3.78 0 1.728-1.44 3.204-3.276 3.204-1.584 0-2.844-.396-4.068-1.944l-4.608 3.384c2.556 2.808 5.616 3.924 8.676 3.924 4.716 0 9.072-3.744 9.072-8.964 0-5.184-3.78-8.28-8.352-8.568-2.844-.18-3.744-1.296-3.744-2.52 0-1.476 1.008-2.376 2.484-2.376.936 0 2.124.576 2.844 1.332l4.392-3.204C57.888 1.72 55.368.712 52.704.712c-3.708 0-7.884 3.204-7.884 7.74 0 4.212 3.024 7.128 7.668 7.668zM74.482 28V6.22h7.056V1.18h-19.26v5.04h6.624V28h5.58zM84.787 1.18V28h5.58V16.228h12.311V28h5.58V1.18h-5.58v10.044H90.367V1.18h-5.58zM132.845 28h6.084L124.745.712 110.596 28h5.761l1.728-3.6h12.996l1.764 3.6zm-8.316-16.992l4.104 8.352h-8.136l4.032-8.352zm22.334-9.828h-5.58V28h5.58V1.18zm13.495 22.176L164.75 28h7.416l-5.796-6.192c3.744-1.728 6.048-5.256 6.048-10.08 0-5.832-4.824-10.548-11.124-10.548h-9.324V28h5.58v-4.644h2.808zm-2.808-5.04V6.22h3.384c3.816 0 5.76 2.664 5.76 5.94 0 3.996-2.412 6.156-6.84 6.156h-2.304z" fill="#DC4444"/><path d="M37.9 32.59V46h2.556v-.648c.396.522 1.386.846 2.214.846 2.484 0 4.464-2.142 4.464-4.734 0-2.628-2.034-4.752-4.464-4.752-.81 0-1.818.396-2.214.828v-4.95H37.9zm4.518 11.07c-1.188 0-2.07-.9-2.07-2.196 0-1.278.882-2.196 2.07-2.196 1.17 0 2.124.918 2.124 2.196 0 1.296-.954 2.196-2.124 2.196zm12.434-6.75v.63c-.396-.432-1.404-.828-2.214-.828-2.43 0-4.464 2.124-4.464 4.752 0 2.592 1.98 4.734 4.464 4.734.828 0 1.818-.324 2.214-.846V46h2.556v-9.09h-2.556zm-1.962 6.75c-1.17 0-2.124-.9-2.124-2.196 0-1.278.954-2.196 2.124-2.196 1.188 0 2.07.918 2.07 2.196 0 1.296-.882 2.196-2.07 2.196zm11.517-6.912c-.234-.036-.414-.036-.63-.036-.702 0-1.458.234-2.016.828v-.63h-2.556V46h2.556v-4.536c0-1.458.846-2.196 1.836-2.196.288 0 .558.036.81.126v-2.646zm1.126-4.158V46h2.556v-.648c.396.522 1.386.846 2.214.846 2.484 0 4.464-2.142 4.464-4.734 0-2.628-2.034-4.752-4.464-4.752-.81 0-1.818.396-2.214.828v-4.95h-2.556zm4.518 11.07c-1.188 0-2.07-.9-2.07-2.196 0-1.278.882-2.196 2.07-2.196 1.17 0 2.124.918 2.124 2.196 0 1.296-.954 2.196-2.124 2.196zm12.65-.918c-.414.648-1.188.918-1.962.918-.27 0-.522-.018-.756-.108l5.076-3.636c-.558-1.692-2.286-3.204-4.536-3.204-2.61 0-4.716 2.124-4.716 4.752 0 2.592 2.196 4.734 4.932 4.734 1.62 0 3.222-.738 3.996-1.89l-2.034-1.566zM78.4 41.464c0-1.278.954-2.196 2.124-2.196.486 0 .9.162 1.26.432l-3.312 2.358a2.068 2.068 0 01-.072-.594zm13.289-4.716c-.234-.036-.414-.036-.63-.036-.702 0-1.458.234-2.016.828v-.63h-2.556V46h2.556v-4.536c0-1.458.846-2.196 1.836-2.196.288 0 .558.036.81.126v-2.646zm3.466 5.598c.576.09.81.342.81.702 0 .342-.216.612-.684.612-.396 0-.72-.108-.99-.396l-2.16 1.566c.792.9 1.782 1.368 3.132 1.368 1.962 0 3.492-1.26 3.492-3.114 0-1.872-1.278-2.736-2.952-2.952-.756-.09-.972-.27-.972-.576 0-.27.198-.468.54-.468s.594.162.828.378l1.836-1.332c-.648-.936-1.548-1.422-2.718-1.422-1.35 0-2.988 1.17-2.988 2.754 0 1.548 1.17 2.646 2.826 2.88zm14.064-.882c0-2.628-1.728-4.752-4.212-4.752-.828 0-1.908.252-2.394.846V32.59h-2.556V46h2.556v-4.536a2.189 2.189 0 012.178-2.196c1.044 0 1.89.738 1.89 2.196V46h2.538v-4.536zm6.004-4.752c-2.61 0-4.716 2.124-4.716 4.752 0 2.592 2.106 4.734 4.716 4.734 2.61 0 4.788-2.142 4.788-4.734 0-2.628-2.178-4.752-4.788-4.752zm0 6.948c-1.17 0-2.124-.9-2.124-2.196 0-1.278.954-2.196 2.124-2.196 1.242 0 2.178.918 2.178 2.196 0 1.296-.936 2.196-2.178 2.196zm8.765 6.678v-4.986c.486.576 1.404.846 2.16.846 2.484 0 4.518-2.142 4.518-4.77 0-2.592-1.962-4.716-4.464-4.716-.828 0-1.818.396-2.214.828v-.63h-2.556v13.428h2.556zm1.962-11.07c1.17 0 2.124.9 2.124 2.178 0 1.296-.954 2.214-2.124 2.214-1.188 0-2.07-.918-2.07-2.214 0-1.278.882-2.178 2.07-2.178z" fill="#fff"/></svg>