<svg width="100" height="100" fill="none" xmlns="http://www.w3.org/2000/svg"><path d="M53 45c-2-.5-4-1.5-5.5-3-1.5-.5-2-2-2-3s.5-2.5 1.5-3c1.5-1 3-2 4.5-1.5 3 0 5.5 1.5 7 3.5l4.5-6c-1.5-1.5-3-2.5-4.5-3.5S55 27 53 27v-7h-6v7c-2.5.5-5 2-7 4-2 2.5-3.5 5.5-3 8.5 0 3 1 6 3 8 2.5 2.5 6 4 9 5.5 1.5.5 3.5 1.5 5 2.5 1 1 1.5 2.5 1.5 4s-.5 3-1.5 4.5c-1.5 1.5-3.5 2-5 2-2 0-4.5-.5-6-2-1.5-1-3-2.5-4-4l-5 5.5c1.5 2 3 3.5 5 5 2.5 1.5 5.5 3 8.5 3V80H53v-7.5c3-.5 5.5-2 7.5-4 2.5-2.5 4-6.5 4-10 0-3-1-6.5-3.5-8.5-2.5-2.5-5-4-8-5zm-3-35c-22 0-40 18-40 40s18 40 40 40 40-18 40-40-18-40-40-40zm0 74.5C31 84.5 15.5 69 15.5 50S31 15.5 50 15.5 84.5 31 84.5 50 69 84.5 50 84.5z" fill="#fff"/></svg>