<svg width="100" height="100" fill="none" xmlns="http://www.w3.org/2000/svg"><path d="M43.75 87.5s-6.25 0-6.25-6.25 6.25-25 31.25-25S100 75 100 81.25s-6.25 6.25-6.25 6.25h-50zm25-37.5a18.75 18.75 0 100-37.5 18.75 18.75 0 000 37.5z" fill="#fff"/><path fill-rule="evenodd" clip-rule="evenodd" d="M32.6 87.5a13.988 13.988 0 01-1.35-6.25c0-8.469 4.25-17.188 12.1-23.25a39.53 39.53 0 00-12.1-1.75C6.25 56.25 0 75 0 81.25s6.25 6.25 6.25 6.25H32.6z" fill="#fff"/><path d="M28.125 50a15.625 15.625 0 100-31.25 15.625 15.625 0 000 31.25z" fill="#fff"/></svg>