<svg width="100" height="100" fill="none" xmlns="http://www.w3.org/2000/svg"><path d="M93.917 22.583L87.86 18a5.333 5.333 0 00-6.555 0L27.778 61.278a15.166 15.166 0 105.555 5.028l10.834-8.667 37.139 29.917a5.333 5.333 0 006.555 0L93.917 83l-35.75-30.222 35.75-30.195zM20.694 82.64a7.944 7.944 0 117.945-7.945 7.972 7.972 0 01-7.945 7.945z" fill="#fff"/><path d="M39.722 42.333l-6.389-5.166a15.166 15.166 0 10-5.555 5.027l6 5.028 5.944-4.889zm-19.028-5.555a7.945 7.945 0 117.945-7.945 7.945 7.945 0 01-7.945 7.917v.028z" fill="#fff"/></svg>