<svg width="30" height="30" fill="none" xmlns="http://www.w3.org/2000/svg"><path fill-rule="evenodd" clip-rule="evenodd" d="M28.395 7.694c.208-.661 0-1.142-.923-1.142h-3.069c-.774 0-1.131.42-1.34.87 0 0-1.578 3.845-3.783 6.337-.715.72-1.042.96-1.43.96-.208 0-.476-.24-.476-.9V7.663c0-.78-.238-1.141-.894-1.141h-4.826c-.477 0-.774.36-.774.72 0 .751 1.102.931 1.22 3.033v4.567c0 .99-.175 1.172-.565 1.172-1.043 0-3.574-3.874-5.093-8.288-.296-.874-.596-1.204-1.37-1.204H1.974c-.894 0-1.042.42-1.042.87 0 .811 1.042 4.895 4.855 10.3 2.532 3.69 6.136 5.675 9.382 5.675 1.967 0 2.205-.45 2.205-1.201v-2.793c0-.9.178-1.05.804-1.05.447 0 1.251.24 3.068 2.011 2.085 2.102 2.442 3.063 3.604 3.063h3.068c.894 0 1.31-.45 1.072-1.322-.267-.87-1.28-2.131-2.591-3.632-.715-.84-1.787-1.772-2.115-2.222-.446-.6-.327-.841 0-1.381-.03 0 3.724-5.345 4.11-7.149" fill="#DCDCDC"/></svg>