<svg width="30" height="30" fill="none" xmlns="http://www.w3.org/2000/svg"><g clip-path="url(#clip0_19:13)"><path d="M19.09 16.513a8.764 8.764 0 011.929.875l-.039-.023a8.374 8.374 0 011.754 1.041l-.019-.013c.025.076.04.162.04.253l-.001.04a4.069 4.069 0 01-.339 1.498l.01-.026a2.61 2.61 0 01-1.359 1.262l-.017.006a4.53 4.53 0 01-1.97.514h-.008a10.428 10.428 0 01-3.735-1.227l.054.027a11.125 11.125 0 01-3.295-2.286l-.001-.001a25.588 25.588 0 01-2.81-3.493l-.059-.092a6.725 6.725 0 01-1.375-3.744l-.001-.016v-.155a4.278 4.278 0 011.43-3.06l.004-.003c.267-.267.628-.42 1.006-.426h.001a3.1 3.1 0 01.365.031l-.016-.002c.109.016.235.026.365.028h.004a.802.802 0 01.517.128l-.002-.001a1.4 1.4 0 01.297.522l.002.01c.104.258.317.827.64 1.705.17.393.334.876.467 1.374l.017.079c-.09.435-.325.826-.666 1.11l-.004.003c-.446.472-.668.772-.668.9.004.106.04.207.1.293v-.001a8.786 8.786 0 001.97 2.648l.006.007a12.38 12.38 0 002.852 1.925l.074.032a.85.85 0 00.424.136h.002c.194 0 .544-.313 1.048-.94.504-.626.839-.94 1.005-.94l.001.002zm-3.934 10.27h.028a11.797 11.797 0 004.767-1l-.076.03c2.945-1.242 5.241-3.538 6.454-6.404l.03-.079c.612-1.391.968-3.014.968-4.719 0-1.705-.356-3.327-.998-4.796l.03.078c-1.243-2.945-3.539-5.242-6.405-6.454l-.079-.03a11.78 11.78 0 00-4.719-.969 11.93 11.93 0 00-4.796.999l.078-.03C7.492 4.65 5.196 6.948 3.984 9.814l-.03.079a11.854 11.854 0 00-.969 4.733 12 12 0 002.349 7.15l-.024-.032-1.531 4.516 4.69-1.492a11.812 11.812 0 006.631 2.015h.059-.003zm0-26.783h.041c2.036 0 3.97.428 5.72 1.199l-.092-.036c3.531 1.496 6.285 4.25 7.745 7.686l.036.095c.735 1.671 1.163 3.62 1.163 5.669 0 2.048-.428 3.997-1.199 5.76l.036-.092c-1.496 3.532-4.25 6.285-7.686 7.745l-.095.037c-1.659.735-3.594 1.162-5.629 1.162h-.042.002-.066a14.32 14.32 0 01-7.08-1.86l.071.038L0 30l2.636-7.849A14.381 14.381 0 01.544 14.64c0-2.058.427-4.015 1.198-5.789l-.036.094C3.203 5.414 5.956 2.66 9.393 1.2l.095-.036A13.973 13.973 0 0115.116 0h.042-.003.001z" fill="#DCDCDC"/></g><defs><clipPath id="clip0_19:13"><path fill="#fff" d="M0 0h30v30H0z"/></clipPath></defs></svg>